<svg xmlns="http://www.w3.org/2000/svg" width="200" height="60" viewBox="0 0 200 60"><defs><style>.a{fill:#fff}</style></defs><path d="M55 30.86V10H15v40h33.37l18.57 3.27 3.47-19.69zM24.42 12.57l3.94.36a10 10 0 01-.68 1.71h6.6C33.6 20.38 31.06 26.72 21.34 29l-2-3.22a13.24 13.24 0 006.78-2.61 22.12 22.12 0 00-3.27-1.79l2.32-2.37a17.45 17.45 0 013.38 1.69A11.91 11.91 0 0030 17.86h-4.47a1.73 1.73 0 01-.23.29A16 16 0 0120.62 22l-2.2-2.52a12 12 0 006-6.91zM32 30.44a12.93 12.93 0 011 2.77l-1.7.42a15.59 15.59 0 00-.93-2.9zM21 46.77l-2.95-2.7a11.45 11.45 0 002.41-5.33 35.09 35.09 0 00.84-7.45l3.48.39c-.61 8.37-1.32 12.32-3.71 15.09zm10.77-.18c-1.62-2.72-3.39-6.35-4-14.8l2.29-.34a15.27 15.27 0 01.72 2.73l.67-.16c.52 4 1.19 6.68 3.54 10zm1.89-13.25a12.86 12.86 0 00-1-2.83l1.61-.29a14.77 14.77 0 011 2.79zm3.21-14.74h6.56v-1.51c-2.43.19-3.89.19-5.14.18l-.73-3.12c1.94 0 7.68-.07 12-1.39l1.72 3.17a41.5 41.5 0 01-4.28.78v1.89h5.36v3.2h-5.48A6.46 6.46 0 0145 26.32a11.3 11.3 0 01-6.2 2.7l-1.67-3.26c2.5-.21 4.61-.93 5.44-1.89a3.48 3.48 0 00.81-2.07h-6.51zm9.92 19.19a10.36 10.36 0 01-1.53 5.42c-.86 1.24-2.48 2.79-6 3.87L37.18 44c3-.83 4.9-2.14 5.45-3.64a8.45 8.45 0 00.47-2.57h-6.16v-3.42h6.16V31h3.69v3.41H50l-.6 3.42zm19.34 14.33L48.4 49l3.13-17.73 17.72 3.13z" class="a"/><path d="M59 35.06l-.42 2.37.88.16-.36 2-1.11-.19-.49 2.5 1.11.2c-.51 2.14-1.39 2.83-1.93 3.17l1.08-6.11-1.86-.33a9.63 9.63 0 00.59-1.76l1.59.28.42-2.35-4.89-.86-.42 2.37 1 .18a4.09 4.09 0 01-1.9 2.91l.1 3.4a2.41 2.41 0 00.48-.3l-.75 4.3 2.11.37.14-.83 2 .36.1-.55 1.06 1.81c2-1 3-3.26 3.45-5.6l1 .18-1.06 6 2.38.42 1.06-6 1 .18.44-2.47-1-.18.36-2 .81.15.42-2.38zm-3.79 9.15l-.55-.1.5-3.11.55.1zm7.3-4l-1-.18.36-2 1 .18zM73.34 17.11V14.2h2.83v-1.14h3.17l-.08 1.07h7v2.93h-7.17v.69a11.8 11.8 0 011.44-.08c4.37 0 6.55 2 6.55 4.92A4.16 4.16 0 0185 26.45a9.58 9.58 0 01-4.14 1.07L80 25.05a5.45 5.45 0 01-4 1.78 3.15 3.15 0 01-3.36-3.46 5.24 5.24 0 013.49-4.86v-1.4zm3.06 4.15a2.42 2.42 0 00-1 1.86 1 1 0 001 1.1 1.72 1.72 0 00.7-.22 10 10 0 01-.7-2.74zm3.82-1.12a8.83 8.83 0 00-1.09.06 17.7 17.7 0 00.23 1.8 7.13 7.13 0 00.86-1.86zm3.83 2.27a1.83 1.83 0 00-1.33-1.76 10.47 10.47 0 01-2.58 4.21c2.11-.06 3.91-.51 3.91-2.45zM94.77 13.16l-.21 1.58h3.28v2.74a25.84 25.84 0 014.77-.37l.08 3.05c-.55 0-1-.07-1.6-.07a11.09 11.09 0 00-4.31.67l-1-2.49a4.87 4.87 0 011.22-.56h-2.94c-1.42 7.42-1.55 8.11-2.26 9.82l-3.17-1A46.46 46.46 0 0091 17.71h-1.95v-3h2.34l.16-1.69zm3.07 9.67a1.32 1.32 0 00-.43.89c0 .6.61.69 2.11.69a27.12 27.12 0 003.36-.14l.07 3.1h-3.24c-2.48-.05-3.73-.26-4.64-1.34a2.41 2.41 0 01-.56-1.51 4.44 4.44 0 011.23-2.93zM109.77 13.16c-.13 1.82-.29 6.45-.29 8.45 0 1.43.07 2.71 2.29 2.71s3.8-1.08 4.33-4.95l2.9 1.54c-1 4.3-3.11 6.5-7.2 6.5-5.13 0-5.56-2.89-5.56-5.81 0-2.45.08-6.26.15-8.49zM124.67 21.36a17.72 17.72 0 00-3.9-1.93l1-2a18.91 18.91 0 014.12 1.79zM121 25.11c4.86-.45 7.07-2.11 8.3-6.84l2.16 1.13a11.53 11.53 0 01-3.46 5.84c-1.19 1.05-2.82 1.79-6.28 2.37zM139.61 13.11c0 .26-.06.66-.16 1.39h7.17v3H139a15.24 15.24 0 01-.45 1.63 6.92 6.92 0 013.32-.79c1.47 0 4.59.48 4.59 4.13 0 5.09-5.63 5.09-8.95 5.09h-1.77l-.69-3c.7.05 1.79.13 3.42.13 2 0 4.68 0 4.68-2 0-.5-.26-1.63-2.07-1.63a4.51 4.51 0 00-3.23 1.25 1.38 1.38 0 00-.4.78l-3.36-.94a15.17 15.17 0 001.61-4.69h-2.86v-3h3.23c0-.89.07-1 .08-1.4zM73.16 44.4c3.12-1.23 4.47-2.77 4.47-6.08v-.82h2.83c0 .54 0 1-.07 1.51a4.87 4.87 0 002.13-2.17h-9.15v-2.65h12.51c-.38 3.73-1.77 5.56-4.16 7.07l-1.45-1.4c-.23 1.56-.74 4.78-5.3 6.74zM99.44 42.44v2.72h-12.1v-2.72zm-1-7.27v2.68H88.26v-2.68zM111.29 44.51a25.52 25.52 0 00-2.39-2.46 16.38 16.38 0 01-5.9 4.41l-1.74-2.21a14 14 0 005.55-3.92 21.54 21.54 0 00-3.76-2.33l1.78-2.06c1 .52 2.25 1.19 3.58 2.05a24.44 24.44 0 001.81-4.11l3 .91a29.74 29.74 0 01-2.46 4.89 26.31 26.31 0 012.71 2.61zM118.65 38v8.8h-2.82v-5.65a5.7 5.7 0 01-.71.59l-.63-3.42a8.93 8.93 0 002.51-4.87l2.62.18a17.63 17.63 0 01-1 3.36v.83a8.3 8.3 0 002.21-4.37l2.52.18a12.6 12.6 0 01-.25 1.37h5v2.61h-3.71v.81h3.46v2.52h-3.46v.86h3.46v2.59h-3.46v2.41h-2.76v-8.35a7.29 7.29 0 01-1.91 2.17zM129.16 39.79H135v7h-2.49v-.46h-.89v.46h-2.46zm11.29-.56h-10v-5.4h10zM131.62 44h.89v-1.84h-.89zm6.29-7.93H133v1h4.9zm-2.24 3.72h6.08v7h-2.49v-.46h-1.15v.46h-2.44zm2.44 4.21h1.15v-1.84h-1.15zM154 13v15h40V13zm10.09 9.5l-.56.09a3.24 3.24 0 01-.31.73 6.07 6.07 0 01-2.7 2.12l-1.19-1.74a4.48 4.48 0 001.8-.79c-.26 0-1.51.18-1.8.19l-.19-1.92c.78 0 1 0 2.77-.16v-.55h-2.49v-1.62h2.49v-.66h-2.64v-1.71h2.64v-.83h1.88v5.16h.31zm4.57.77h-2.4v1.94h-1.89v-9.56h1.89v.83h2.32v1.78h-2.32v.66h2.16v1.7h-2.16v.81h2.4zm2.87-7.7l1.87.47a10.78 10.78 0 01-3.28 4.82l-1.2-1.86a8.24 8.24 0 002.61-3.43zm5.15 9.72l-.31-.71c-2.12.25-4.5.31-6.75.37l-.26-1.95h1.25a42.52 42.52 0 001.69-4.32l2 .36a30.9 30.9 0 01-1.66 3.96h.77l2-.12a8.44 8.44 0 00-1.09-1.52l1.81-1a15.71 15.71 0 012.57 4.09zm.94-4.53a10.14 10.14 0 01-3.21-4.76l1.89-.48a8.36 8.36 0 002.62 3.55zm1.58 4.36l-.17-2h1.67v-2h-1.32v-1.85H184v1.81h-1.35V23a15.71 15.71 0 001.72-.18v1.78a51.14 51.14 0 01-5.17.52zm7.73.15c-2.38 0-2.64-4.23-2.78-6.58h-5v-1.8h4.91v-1.23h2v1.23h.46a5.93 5.93 0 00-.3-.93l1.84-.34a7.85 7.85 0 01.44 1.27h.16v1.8h-2.56a11.7 11.7 0 00.5 3.54c.24.6.39.63.51.63.33 0 1-.64 1.34-1.29l.41 2.42a2.4 2.4 0 01-1.93 1.28zM148.56 40.28h7.11v6.49h-2.48v-.58H151v.58h-2.47V41l-1.64.53c0-.2 0-.25-.07-.58h-.29v5.79h-1.83v-5.5l-1.82.24-.2-2.3h.74l.61-.77a8.42 8.42 0 00-1.57-1.29l.79-2.38.29.2a12.18 12.18 0 00.58-1.63l2.22.34a12.74 12.74 0 01-1.28 2.55l.3.29a12.42 12.42 0 001-1.78l1.93.73v-1.72h7.59c-.12 4.29-.36 4.85-.57 5.31a1.41 1.41 0 01-1.44.91h-1.84l-.47-2.09a5.17 5.17 0 01-2.34 2.33l-1.35-2a16.07 16.07 0 01.67 2.2zM142.48 45a11.57 11.57 0 00.4-3.3l1.57.14a26 26 0 01-.41 4.48zm4-6l-.22-.72-.67.79zm1.24-1.31l.16.43a3.15 3.15 0 001.9-1.94h-1.42v-.71a16.93 16.93 0 01-2 2.64zm-.79 7.53a30.45 30.45 0 00-.15-3.34l1.26-.2c.14.85.29 2.28.34 3.35zm6.31-2.56H151v1.2h2.16zm-1.07-6.48a5.43 5.43 0 01-.39 1.38h1c.28 0 .55 0 .51-1.38zM159.43 38.48c-.93.52-1.38.72-1.84.93l-1.13-2.72a11 11 0 005.43-3.36h2.9a11 11 0 005.56 3.44l-1.29 2.8c-.52-.25-1.05-.5-1.83-1v8.23h-2.68v-8.58h2a10.49 10.49 0 01-3.19-2.89 13.63 13.63 0 01-3.51 2.89H162v2.35a8.11 8.11 0 01-1.06 4.1 6.12 6.12 0 01-2.86 2.13l-1.47-2.49a3.55 3.55 0 002.82-3.74z" class="a"/></svg>